<svg 
 xmlns="http://www.w3.org/2000/svg"
 xmlns:xlink="http://www.w3.org/1999/xlink"
 width="2852px" height="786px">
<defs>
<filter id="Filter_0">
    <feFlood flood-color="rgb(10, 48, 122)" flood-opacity="1" result="floodOut" />
    <feComposite operator="atop" in="floodOut" in2="SourceGraphic" result="compOut" />
    <feBlend mode="normal" in="compOut" in2="SourceGraphic" />
</filter>
<linearGradient id="PSgrad_0" x1="100%" x2="0%" y1="0%" y2="0%">
  <stop offset="0%" stop-color="rgb(59,43,252)" stop-opacity="1" />
  <stop offset="100%" stop-color="rgb(111,120,253)" stop-opacity="1" />
</linearGradient>
<filter id="Filter_1">
    <feFlood flood-color="rgb(35, 214, 83)" flood-opacity="1" result="floodOut" />
    <feComposite operator="atop" in="floodOut" in2="SourceGraphic" result="compOut" />
    <feBlend mode="normal" in="compOut" in2="SourceGraphic" />
</filter>
<linearGradient id="PSgrad_1" x1="0%" x2="0%" y1="100%" y2="0%">
  <stop offset="0%" stop-color="rgb(0,132,255)" stop-opacity="1" />
  <stop offset="100%" stop-color="rgb(81,241,255)" stop-opacity="1" />
</linearGradient>

</defs>
<path fill-rule="evenodd"  fill="rgb(10, 48, 122)"
 d="M2850.291,280.284 L2714.51,647.959 C2712.73,653.561 2708.116,656.365 2702.182,656.365 L2622.70,656.365 C2619.265,656.365 2617.83,655.747 2615.518,654.511 C2613.949,653.275 2613.169,651.582 2613.169,649.442 C2613.169,647.626 2613.497,645.980 2614.158,644.497 L2645.65,567.105 L2537.13,280.284 C2536.519,278.472 2536.271,276.988 2536.271,275.833 C2536.271,273.527 2537.13,271.715 2538.497,270.394 C2539.980,269.76 2542.121,268.416 2544.925,268.416 L2629.982,268.416 C2636.245,268.416 2640.201,271.220 2641.851,276.822 L2693.34,445.700 L2744.958,276.822 C2746.604,271.220 2750.560,268.416 2756.827,268.416 L2842.131,268.416 C2844.932,268.416 2847.157,269.34 2848.807,270.270 C2850.453,271.506 2851.280,273.280 2851.280,275.586 C2851.280,277.236 2850.947,278.800 2850.291,280.284 ZM2512.287,568.588 L2437.368,568.588 C2434.68,568.588 2431.514,567.684 2429.703,565.868 C2427.887,564.57 2426.983,561.503 2426.983,558.203 L2426.983,192.507 C2426.983,189.211 2427.887,186.658 2429.703,184.842 C2431.514,183.30 2434.68,182.122 2437.368,182.122 L2512.287,182.122 C2519.44,182.122 2522.425,185.584 2522.425,192.507 L2522.425,558.203 C2522.425,565.127 2519.44,568.588 2512.287,568.588 ZM2402.9,568.588 L2312.254,568.588 C2309.450,568.588 2307.62,568.55 2305.84,566.981 C2303.106,565.911 2301.375,564.138 2299.891,561.665 L2238.818,461.31 L2211.373,492.680 L2211.373,558.203 C2211.373,561.503 2210.465,564.57 2208.653,565.868 C2206.837,567.684 2204.283,568.588 2200.988,568.588 L2125.326,568.588 C2122.27,568.588 2119.473,567.684 2117.661,565.868 C2115.846,564.57 2114.941,561.503 2114.941,558.203 L2114.941,192.507 C2114.941,189.211 2115.846,186.658 2117.661,184.842 C2119.473,183.30 2122.27,182.122 2125.326,182.122 L2200.988,182.122 C2204.283,182.122 2206.837,183.30 2208.653,184.842 C2210.465,186.658 2211.373,189.211 2211.373,192.507 L2211.373,366.825 L2280.111,274.350 C2283.78,270.394 2287.281,268.416 2292.721,268.416 L2394.592,268.416 C2397.393,268.416 2399.576,268.953 2401.144,270.23 C2402.709,271.97 2403.493,272.538 2403.493,274.350 C2403.493,276.494 2402.419,278.719 2400.279,281.26 L2304.95,389.78 L2408.685,556.225 C2410.169,558.370 2410.911,560.429 2410.911,562.407 C2410.911,564.223 2410.127,565.706 2408.562,566.857 C2406.993,568.13 2404.810,568.588 2402.9,568.588 ZM1957.314,479.822 C1967.119,485.756 1977.546,488.724 1988.592,488.724 C1998.150,488.724 2006.518,487.572 2013.689,485.262 C2020.859,482.955 2028.154,479.413 2035.571,474.630 C2038.372,472.984 2040.598,472.157 2042.247,472.157 C2045.48,472.157 2047.602,473.807 2049.912,477.102 L2087.1,530.263 C2088.813,532.902 2089.721,535.208 2089.721,537.186 C2089.721,539.659 2088.647,541.722 2086.507,543.368 C2072.660,553.753 2057.164,561.831 2040.22,567.599 C2022.876,573.367 2004.250,576.253 1984.141,576.253 C1954.470,576.253 1927.847,569.206 1904.277,555.113 C1880.702,541.19 1862.324,522.104 1849.138,498.367 C1835.948,474.630 1829.357,448.668 1829.357,420.480 C1829.357,391.798 1835.909,365.507 1849.14,341.604 C1862.119,317.705 1880.497,298.705 1904.153,284.611 C1927.805,270.517 1954.632,263.470 1984.636,263.470 C2004.84,263.470 2022.300,266.275 2039.280,271.877 C2056.256,277.483 2071.424,285.314 2084.776,295.367 C2087.743,297.511 2089.227,300.150 2089.227,303.279 C2089.227,305.257 2088.485,307.401 2087.1,309.708 L2050.160,362.869 C2047.849,366.168 2045.295,367.814 2042.495,367.814 C2040.679,367.814 2038.372,366.991 2035.571,365.341 C2027.987,360.562 2020.651,356.977 2013.565,354.585 C2006.476,352.198 1998.69,351.0 1988.345,351.0 C1977.133,351.0 1966.667,353.967 1956.943,359.901 C1947.215,365.836 1939.469,374.80 1933.700,384.627 C1927.928,395.178 1925.46,407.128 1925.46,420.480 C1925.46,433.337 1927.971,444.959 1933.824,455.344 C1939.673,465.728 1947.504,473.888 1957.314,479.822 ZM1814.769,452.376 L1620.670,452.376 C1626.604,465.72 1635.92,474.672 1646.138,481.182 C1657.180,487.696 1669.628,490.949 1683.474,490.949 C1692.870,490.949 1701.234,489.713 1708.571,487.240 C1715.904,484.767 1723.283,481.144 1730.701,476.361 C1732.841,474.715 1735.66,473.888 1737.377,473.888 C1740.178,473.888 1742.650,475.457 1744.794,478.586 L1780.647,529.521 C1782.131,531.666 1782.872,533.810 1782.872,535.950 C1782.872,539.83 1781.470,541.722 1778.669,543.862 C1764.985,554.85 1749.821,562.36 1733.173,567.723 C1716.522,573.410 1698.638,576.253 1679.518,576.253 C1648.858,576.253 1621.536,569.206 1597.551,555.113 C1573.567,541.19 1554.899,522.65 1541.547,498.243 C1528.195,474.425 1521.519,448.420 1521.519,420.233 C1521.519,391.883 1527.905,365.755 1540.682,341.852 C1553.454,317.952 1571.342,298.913 1594.337,284.735 C1617.332,270.560 1643.499,263.470 1672.842,263.470 C1704.819,263.470 1732.389,270.146 1755.550,283.498 C1778.707,296.850 1796.387,315.314 1808.587,338.884 C1820.784,362.459 1826.884,389.410 1826.884,419.738 C1826.884,428.145 1826.471,435.729 1825.648,442.486 C1824.987,449.81 1821.360,452.376 1814.769,452.376 ZM1710.178,354.585 C1700.616,348.404 1689.242,345.313 1676.56,345.313 C1662.867,345.313 1651.454,348.446 1641.811,354.709 C1632.168,360.976 1624.789,370.286 1619.681,382.649 L1731.690,382.649 C1726.907,370.124 1719.736,360.767 1710.178,354.585 ZM1495.310,568.588 L1419.648,568.588 C1416.349,568.588 1413.795,567.684 1411.983,565.868 C1410.168,564.57 1409.263,561.503 1409.263,558.203 L1409.263,410.590 C1409.263,398.887 1407.162,388.545 1402.958,379.559 C1398.755,370.576 1392.778,363.610 1385.32,358.665 C1377.282,353.720 1368.300,351.247 1358.81,351.247 C1346.869,351.247 1336.693,353.886 1327.544,359.160 C1318.396,364.437 1311.264,371.275 1306.156,379.682 C1301.45,388.89 1298.491,396.828 1298.491,405.892 L1298.491,558.203 C1298.491,565.127 1295.111,568.588 1288.354,568.588 L1213.434,568.588 C1210.135,568.588 1207.581,567.684 1205.769,565.868 C1203.953,564.57 1203.49,561.503 1203.49,558.203 L1203.49,192.507 C1203.49,189.211 1203.953,186.658 1205.769,184.842 C1207.581,183.30 1210.135,182.122 1213.434,182.122 L1288.354,182.122 C1295.111,182.122 1298.491,185.584 1298.491,192.507 L1298.491,294.378 C1310.360,285.148 1324.121,277.688 1339.784,272.1 C1355.442,266.314 1369.949,263.470 1383.301,263.470 C1407.861,263.470 1429.373,269.119 1447.836,280.408 C1466.295,291.700 1480.555,307.649 1490.612,328.252 C1500.664,348.860 1505.695,372.678 1505.695,399.710 L1505.695,558.203 C1505.695,561.503 1504.787,564.57 1502.975,565.868 C1501.159,567.684 1498.605,568.588 1495.310,568.588 ZM1031.946,466.223 C1043.814,473.478 1056.506,477.102 1070.24,477.102 C1080.76,477.102 1088.649,475.990 1095.739,473.764 C1102.824,471.539 1110.822,467.297 1119.723,461.31 C1122.29,459.385 1124.421,458.558 1126.893,458.558 C1129.861,458.558 1132.414,460.41 1134.558,463.9 L1180.796,525.318 C1182.774,527.791 1183.763,530.182 1183.763,532.488 C1183.763,534.961 1182.442,537.186 1179.807,539.164 C1164.477,550.705 1147.455,559.563 1128.748,565.745 C1110.37,571.926 1090.461,575.17 1070.24,575.17 C1036.397,575.17 1005.736,566.900 978.43,550.662 C950.350,534.428 928.549,512.503 912.643,484.891 C896.734,457.283 888.783,426.994 888.783,394.23 C888.783,361.57 896.734,330.849 912.643,303.403 C928.549,275.957 950.350,254.241 978.43,238.250 C1005.736,222.263 1036.397,214.266 1070.24,214.266 C1090.299,214.266 1109.748,217.318 1128.377,223.414 C1147.3,229.515 1163.897,238.169 1179.65,249.377 C1182.32,251.849 1183.516,254.488 1183.516,257.289 C1183.516,259.599 1182.689,261.825 1181.43,263.965 L1133.817,325.780 C1131.673,328.747 1129.34,330.230 1125.904,330.230 C1123.926,330.230 1121.701,329.489 1119.228,328.5 C1111.811,323.226 1103.856,319.393 1095.368,316.507 C1086.876,313.625 1078.431,312.180 1070.24,312.180 C1056.506,312.180 1043.772,315.808 1031.822,323.60 C1019.869,330.315 1010.311,340.206 1003.140,352.731 C995.970,365.260 992.384,379.107 992.384,394.271 C992.384,409.601 996.8,423.613 1003.264,436.305 C1010.515,449.0 1020.77,458.971 1031.946,466.223 Z"/>
<g filter="url(#Filter_0)">
<path fill-rule="evenodd"  fill="url(#PSgrad_0)"
 d="M57.480,324.344 L387.402,222.457 C430.719,209.80 484.872,230.541 510.89,268.633 L686.463,535.55 C710.515,571.387 700.585,615.173 663.10,633.657 L375.730,774.974 C328.978,797.972 265.359,783.981 235.462,742.297 L15.658,435.837 C-16.3,391.692 3.83,341.142 57.480,324.344 Z"/>
</g>
<g filter="url(#Filter_1)">
<path fill-rule="evenodd"  fill="url(#PSgrad_1)"
 d="M107.241,106.440 L437.162,4.554 C480.480,-8.822 534.633,12.638 559.849,50.729 L736.223,317.151 C760.276,353.483 750.345,397.269 712.771,415.753 L425.490,557.70 C378.738,580.68 315.120,566.77 285.222,524.393 L65.418,217.933 C33.756,173.788 52.844,123.239 107.241,106.440 Z"/>
</g>
</svg>